<mxfile host="65bd71144e">
    <diagram id="hsfEyT_rU_YrOj_-06xY" name="Page-1">
        <mxGraphModel dx="746" dy="427" grid="1" gridSize="10" guides="1" tooltips="1" connect="1" arrows="1" fold="1" page="1" pageScale="1" pageWidth="1169" pageHeight="827" background="#ffffff" math="0" shadow="0">
            <root>
                <mxCell id="0"/>
                <mxCell id="1" parent="0"/>
                <mxCell id="20" style="edgeStyle=none;shape=connector;rounded=1;html=1;entryX=0.5;entryY=0;entryDx=0;entryDy=0;entryPerimeter=0;labelBackgroundColor=default;strokeColor=#000000;fontFamily=Helvetica;fontSize=12;fontColor=default;endArrow=classic;" edge="1" parent="1" source="18" target="19">
                    <mxGeometry relative="1" as="geometry"/>
                </mxCell>
                <mxCell id="18" value="Log In" style="strokeWidth=2;html=1;shape=mxgraph.flowchart.display;whiteSpace=wrap;rounded=1;labelBackgroundColor=none;labelBorderColor=none;fontFamily=Helvetica;fontSize=12;gradientColor=none;fillStyle=auto;fillColor=#66B2FF;" vertex="1" parent="1">
                    <mxGeometry x="310" y="80" width="100" height="60" as="geometry"/>
                </mxCell>
                <mxCell id="23" style="edgeStyle=none;shape=connector;rounded=1;html=1;exitX=0;exitY=0.5;exitDx=0;exitDy=0;exitPerimeter=0;entryX=1;entryY=0.5;entryDx=0;entryDy=0;labelBackgroundColor=default;strokeColor=#000000;fontFamily=Helvetica;fontSize=12;fontColor=default;endArrow=classic;" edge="1" parent="1" source="19" target="22">
                    <mxGeometry relative="1" as="geometry"/>
                </mxCell>
                <mxCell id="25" style="edgeStyle=none;shape=connector;rounded=1;html=1;exitX=1;exitY=0.5;exitDx=0;exitDy=0;exitPerimeter=0;entryX=0;entryY=0.5;entryDx=0;entryDy=0;labelBackgroundColor=default;strokeColor=#000000;fontFamily=Helvetica;fontSize=12;fontColor=default;endArrow=classic;" edge="1" parent="1" source="19" target="24">
                    <mxGeometry relative="1" as="geometry"/>
                </mxCell>
                <mxCell id="27" style="edgeStyle=none;shape=connector;rounded=1;html=1;exitX=0.5;exitY=1;exitDx=0;exitDy=0;exitPerimeter=0;entryX=0.5;entryY=0;entryDx=0;entryDy=0;labelBackgroundColor=default;strokeColor=#000000;fontFamily=Helvetica;fontSize=12;fontColor=default;endArrow=classic;" edge="1" parent="1" source="19" target="26">
                    <mxGeometry relative="1" as="geometry"/>
                </mxCell>
                <mxCell id="19" value="User" style="strokeWidth=2;html=1;shape=mxgraph.flowchart.decision;whiteSpace=wrap;rounded=1;labelBackgroundColor=none;labelBorderColor=none;fillStyle=auto;strokeColor=default;fontFamily=Helvetica;fontSize=12;fontColor=default;fillColor=#66B2FF;gradientColor=none;" vertex="1" parent="1">
                    <mxGeometry x="310" y="210" width="100" height="100" as="geometry"/>
                </mxCell>
                <mxCell id="29" style="edgeStyle=orthogonalEdgeStyle;shape=connector;rounded=1;html=1;exitX=0.5;exitY=1;exitDx=0;exitDy=0;entryX=0;entryY=0.5;entryDx=0;entryDy=0;entryPerimeter=0;labelBackgroundColor=default;strokeColor=#000000;fontFamily=Helvetica;fontSize=12;fontColor=default;endArrow=classic;" edge="1" parent="1" source="22" target="28">
                    <mxGeometry relative="1" as="geometry"/>
                </mxCell>
                <mxCell id="38" style="edgeStyle=orthogonalEdgeStyle;shape=connector;rounded=1;html=1;exitX=0.75;exitY=1;exitDx=0;exitDy=0;entryX=0.5;entryY=1;entryDx=0;entryDy=0;entryPerimeter=0;labelBackgroundColor=default;strokeColor=#000000;fontFamily=Helvetica;fontSize=12;fontColor=default;endArrow=classic;" edge="1" parent="1" source="22" target="34">
                    <mxGeometry relative="1" as="geometry">
                        <Array as="points">
                            <mxPoint x="185" y="520"/>
                            <mxPoint x="650" y="520"/>
                        </Array>
                    </mxGeometry>
                </mxCell>
                <mxCell id="41" style="edgeStyle=orthogonalEdgeStyle;shape=connector;rounded=1;html=1;exitX=0.75;exitY=1;exitDx=0;exitDy=0;entryX=0.5;entryY=1;entryDx=0;entryDy=0;entryPerimeter=0;labelBackgroundColor=default;strokeColor=#000000;fontFamily=Helvetica;fontSize=12;fontColor=default;endArrow=classic;" edge="1" parent="1" source="22" target="39">
                    <mxGeometry relative="1" as="geometry">
                        <Array as="points">
                            <mxPoint x="185" y="620"/>
                            <mxPoint x="650" y="620"/>
                        </Array>
                    </mxGeometry>
                </mxCell>
                <mxCell id="42" style="edgeStyle=orthogonalEdgeStyle;shape=connector;rounded=1;html=1;exitX=0.75;exitY=1;exitDx=0;exitDy=0;entryX=0.5;entryY=1;entryDx=0;entryDy=0;entryPerimeter=0;labelBackgroundColor=default;strokeColor=#000000;fontFamily=Helvetica;fontSize=12;fontColor=default;endArrow=classic;" edge="1" parent="1" source="22" target="40">
                    <mxGeometry relative="1" as="geometry">
                        <Array as="points">
                            <mxPoint x="185" y="740"/>
                            <mxPoint x="650" y="740"/>
                        </Array>
                    </mxGeometry>
                </mxCell>
                <mxCell id="52" style="edgeStyle=orthogonalEdgeStyle;shape=connector;rounded=1;html=1;exitX=1;exitY=0.25;exitDx=0;exitDy=0;entryX=0;entryY=0.5;entryDx=0;entryDy=0;entryPerimeter=0;labelBackgroundColor=default;strokeColor=#000000;fontFamily=Helvetica;fontSize=12;fontColor=default;endArrow=classic;" edge="1" parent="1" source="22" target="43">
                    <mxGeometry relative="1" as="geometry">
                        <Array as="points">
                            <mxPoint x="210" y="200"/>
                            <mxPoint x="430" y="200"/>
                            <mxPoint x="430" y="110"/>
                        </Array>
                    </mxGeometry>
                </mxCell>
                <mxCell id="54" style="edgeStyle=orthogonalEdgeStyle;shape=connector;rounded=1;html=1;exitX=1;exitY=1;exitDx=0;exitDy=0;entryX=0.2;entryY=0.86;entryDx=0;entryDy=0;entryPerimeter=0;labelBackgroundColor=default;strokeColor=#000000;fontFamily=Helvetica;fontSize=12;fontColor=default;endArrow=classic;" edge="1" parent="1" source="22" target="45">
                    <mxGeometry relative="1" as="geometry"/>
                </mxCell>
                <mxCell id="55" style="edgeStyle=orthogonalEdgeStyle;shape=connector;rounded=1;html=1;exitX=1;exitY=0.25;exitDx=0;exitDy=0;entryX=0.5;entryY=0;entryDx=0;entryDy=0;entryPerimeter=0;labelBackgroundColor=default;strokeColor=#000000;fontFamily=Helvetica;fontSize=12;fontColor=default;endArrow=classic;" edge="1" parent="1" source="22" target="47">
                    <mxGeometry relative="1" as="geometry">
                        <Array as="points">
                            <mxPoint x="210" y="150"/>
                            <mxPoint x="740" y="150"/>
                        </Array>
                    </mxGeometry>
                </mxCell>
                <mxCell id="58" style="edgeStyle=orthogonalEdgeStyle;shape=connector;rounded=1;html=1;exitX=0.75;exitY=0;exitDx=0;exitDy=0;entryX=0;entryY=0.5;entryDx=0;entryDy=0;entryPerimeter=0;labelBackgroundColor=default;strokeColor=#000000;fontFamily=Helvetica;fontSize=12;fontColor=default;endArrow=classic;" edge="1" parent="1" source="22" target="56">
                    <mxGeometry relative="1" as="geometry"/>
                </mxCell>
                <mxCell id="22" value="Admin&lt;br&gt;Dashboard" style="rounded=1;whiteSpace=wrap;html=1;absoluteArcSize=1;arcSize=14;strokeWidth=2;labelBackgroundColor=none;labelBorderColor=none;fillStyle=auto;strokeColor=default;fontFamily=Helvetica;fontSize=12;fontColor=default;fillColor=#66B2FF;gradientColor=none;" vertex="1" parent="1">
                    <mxGeometry x="110" y="210" width="100" height="100" as="geometry"/>
                </mxCell>
                <mxCell id="30" style="edgeStyle=orthogonalEdgeStyle;shape=connector;rounded=1;html=1;exitX=0.5;exitY=1;exitDx=0;exitDy=0;entryX=1;entryY=0.5;entryDx=0;entryDy=0;entryPerimeter=0;labelBackgroundColor=default;strokeColor=#000000;fontFamily=Helvetica;fontSize=12;fontColor=default;endArrow=classic;" edge="1" parent="1" source="24" target="28">
                    <mxGeometry relative="1" as="geometry"/>
                </mxCell>
                <mxCell id="36" style="edgeStyle=orthogonalEdgeStyle;shape=connector;rounded=1;html=1;exitX=1;exitY=0.5;exitDx=0;exitDy=0;labelBackgroundColor=default;strokeColor=#000000;fontFamily=Helvetica;fontSize=12;fontColor=default;endArrow=classic;" edge="1" parent="1" source="24" target="34">
                    <mxGeometry relative="1" as="geometry"/>
                </mxCell>
                <mxCell id="44" style="edgeStyle=orthogonalEdgeStyle;shape=connector;rounded=1;html=1;exitX=0.5;exitY=0;exitDx=0;exitDy=0;entryX=0;entryY=0.5;entryDx=0;entryDy=0;entryPerimeter=0;labelBackgroundColor=default;strokeColor=#000000;fontFamily=Helvetica;fontSize=12;fontColor=default;endArrow=classic;" edge="1" parent="1" source="24" target="43">
                    <mxGeometry relative="1" as="geometry"/>
                </mxCell>
                <mxCell id="50" style="edgeStyle=orthogonalEdgeStyle;shape=connector;rounded=1;html=1;exitX=0.75;exitY=0;exitDx=0;exitDy=0;entryX=0;entryY=0.5;entryDx=0;entryDy=0;entryPerimeter=0;labelBackgroundColor=default;strokeColor=#000000;fontFamily=Helvetica;fontSize=12;fontColor=default;endArrow=classic;" edge="1" parent="1" source="24" target="47">
                    <mxGeometry relative="1" as="geometry"/>
                </mxCell>
                <mxCell id="57" style="edgeStyle=orthogonalEdgeStyle;shape=connector;rounded=1;html=1;exitX=0.25;exitY=0;exitDx=0;exitDy=0;entryX=0.5;entryY=1;entryDx=0;entryDy=0;entryPerimeter=0;labelBackgroundColor=default;strokeColor=#000000;fontFamily=Helvetica;fontSize=12;fontColor=default;endArrow=classic;" edge="1" parent="1" source="24" target="56">
                    <mxGeometry relative="1" as="geometry"/>
                </mxCell>
                <mxCell id="24" value="Instructor&lt;br&gt;Dashboard" style="rounded=1;whiteSpace=wrap;html=1;absoluteArcSize=1;arcSize=14;strokeWidth=2;labelBackgroundColor=none;labelBorderColor=none;fillStyle=auto;strokeColor=default;fontFamily=Helvetica;fontSize=12;fontColor=default;fillColor=#66B2FF;gradientColor=none;" vertex="1" parent="1">
                    <mxGeometry x="510" y="210" width="100" height="100" as="geometry"/>
                </mxCell>
                <mxCell id="31" style="edgeStyle=orthogonalEdgeStyle;shape=connector;rounded=1;html=1;exitX=0.5;exitY=1;exitDx=0;exitDy=0;entryX=0.5;entryY=0;entryDx=0;entryDy=0;entryPerimeter=0;labelBackgroundColor=default;strokeColor=#000000;fontFamily=Helvetica;fontSize=12;fontColor=default;endArrow=classic;" edge="1" parent="1" source="26" target="28">
                    <mxGeometry relative="1" as="geometry"/>
                </mxCell>
                <mxCell id="35" style="edgeStyle=orthogonalEdgeStyle;shape=connector;rounded=1;html=1;exitX=1;exitY=0.5;exitDx=0;exitDy=0;labelBackgroundColor=default;strokeColor=#000000;fontFamily=Helvetica;fontSize=12;fontColor=default;endArrow=classic;entryX=0;entryY=0.5;entryDx=0;entryDy=0;entryPerimeter=0;" edge="1" parent="1" source="26" target="34">
                    <mxGeometry relative="1" as="geometry">
                        <mxPoint x="520" y="430" as="targetPoint"/>
                    </mxGeometry>
                </mxCell>
                <mxCell id="46" style="edgeStyle=orthogonalEdgeStyle;shape=connector;rounded=1;html=1;exitX=1;exitY=0.25;exitDx=0;exitDy=0;entryX=0;entryY=0.5;entryDx=0;entryDy=0;entryPerimeter=0;labelBackgroundColor=default;strokeColor=#000000;fontFamily=Helvetica;fontSize=12;fontColor=default;endArrow=classic;" edge="1" parent="1" source="26" target="45">
                    <mxGeometry relative="1" as="geometry">
                        <Array as="points">
                            <mxPoint x="510" y="405"/>
                            <mxPoint x="510" y="320"/>
                        </Array>
                    </mxGeometry>
                </mxCell>
                <mxCell id="51" style="edgeStyle=orthogonalEdgeStyle;shape=connector;rounded=1;html=1;exitX=0.75;exitY=0;exitDx=0;exitDy=0;labelBackgroundColor=default;strokeColor=#000000;fontFamily=Helvetica;fontSize=12;fontColor=default;endArrow=classic;" edge="1" parent="1" source="26" target="47">
                    <mxGeometry relative="1" as="geometry">
                        <Array as="points">
                            <mxPoint x="460" y="380"/>
                            <mxPoint x="460" y="200"/>
                        </Array>
                    </mxGeometry>
                </mxCell>
                <mxCell id="26" value="Student&lt;br&gt;Dashboard" style="rounded=1;whiteSpace=wrap;html=1;absoluteArcSize=1;arcSize=14;strokeWidth=2;labelBackgroundColor=none;labelBorderColor=none;fillStyle=auto;strokeColor=default;fontFamily=Helvetica;fontSize=12;fontColor=default;fillColor=#66B2FF;gradientColor=none;" vertex="1" parent="1">
                    <mxGeometry x="310" y="380" width="100" height="100" as="geometry"/>
                </mxCell>
                <mxCell id="33" style="edgeStyle=orthogonalEdgeStyle;shape=connector;rounded=1;html=1;exitX=0.5;exitY=1;exitDx=0;exitDy=0;exitPerimeter=0;entryX=0.5;entryY=0;entryDx=0;entryDy=0;entryPerimeter=0;labelBackgroundColor=default;strokeColor=#000000;fontFamily=Helvetica;fontSize=12;fontColor=default;endArrow=classic;" edge="1" parent="1" source="28" target="18">
                    <mxGeometry relative="1" as="geometry">
                        <Array as="points">
                            <mxPoint x="360" y="640"/>
                            <mxPoint x="90" y="640"/>
                            <mxPoint x="90" y="40"/>
                            <mxPoint x="360" y="40"/>
                        </Array>
                    </mxGeometry>
                </mxCell>
                <mxCell id="28" value="Log Out" style="strokeWidth=2;shape=mxgraph.flowchart.display;rounded=1;labelBackgroundColor=none;labelBorderColor=none;fillStyle=auto;strokeColor=default;fontFamily=Helvetica;fontSize=12;fontColor=default;fillColor=#66B2FF;gradientColor=none;whiteSpace=wrap;html=1;" vertex="1" parent="1">
                    <mxGeometry x="310" y="550" width="100" height="60" as="geometry"/>
                </mxCell>
                <mxCell id="34" value="Courses" style="strokeWidth=2;html=1;shape=mxgraph.flowchart.display;whiteSpace=wrap;rounded=1;labelBackgroundColor=none;labelBorderColor=none;fillStyle=auto;strokeColor=default;fontFamily=Helvetica;fontSize=12;fontColor=default;fillColor=#66B2FF;gradientColor=none;" vertex="1" parent="1">
                    <mxGeometry x="600" y="400" width="100" height="60" as="geometry"/>
                </mxCell>
                <mxCell id="39" value="Add/Modify Courses" style="strokeWidth=2;html=1;shape=mxgraph.flowchart.display;whiteSpace=wrap;rounded=1;labelBackgroundColor=none;labelBorderColor=none;fillStyle=auto;strokeColor=default;fontFamily=Helvetica;fontSize=12;fontColor=default;fillColor=#66B2FF;gradientColor=none;" vertex="1" parent="1">
                    <mxGeometry x="600" y="540" width="100" height="60" as="geometry"/>
                </mxCell>
                <mxCell id="40" value="Add/Modify Session" style="strokeWidth=2;html=1;shape=mxgraph.flowchart.display;whiteSpace=wrap;rounded=1;labelBackgroundColor=none;labelBorderColor=none;fillStyle=auto;strokeColor=default;fontFamily=Helvetica;fontSize=12;fontColor=default;fillColor=#66B2FF;gradientColor=none;" vertex="1" parent="1">
                    <mxGeometry x="600" y="650" width="100" height="60" as="geometry"/>
                </mxCell>
                <mxCell id="43" value="Take Exam/Generate Sheet" style="strokeWidth=2;html=1;shape=mxgraph.flowchart.display;whiteSpace=wrap;rounded=1;labelBackgroundColor=none;labelBorderColor=none;fillStyle=auto;strokeColor=default;fontFamily=Helvetica;fontSize=12;fontColor=default;fillColor=#66B2FF;gradientColor=none;" vertex="1" parent="1">
                    <mxGeometry x="600" y="80" width="100" height="60" as="geometry"/>
                </mxCell>
                <mxCell id="45" value="Give Exam" style="strokeWidth=2;html=1;shape=mxgraph.flowchart.display;whiteSpace=wrap;rounded=1;labelBackgroundColor=none;labelBorderColor=none;fillStyle=auto;strokeColor=default;fontFamily=Helvetica;fontSize=12;fontColor=default;fillColor=#66B2FF;gradientColor=none;" vertex="1" parent="1">
                    <mxGeometry x="690" y="290" width="100" height="60" as="geometry"/>
                </mxCell>
                <mxCell id="47" value="Review Paper" style="strokeWidth=2;html=1;shape=mxgraph.flowchart.display;whiteSpace=wrap;rounded=1;labelBackgroundColor=none;labelBorderColor=none;fillStyle=auto;strokeColor=default;fontFamily=Helvetica;fontSize=12;fontColor=default;fillColor=#66B2FF;gradientColor=none;" vertex="1" parent="1">
                    <mxGeometry x="690" y="160" width="100" height="60" as="geometry"/>
                </mxCell>
                <mxCell id="56" value="Create Questions&lt;br&gt;" style="strokeWidth=2;html=1;shape=mxgraph.flowchart.display;whiteSpace=wrap;rounded=1;labelBackgroundColor=none;labelBorderColor=none;fillStyle=auto;strokeColor=default;fontFamily=Helvetica;fontSize=12;fontColor=default;fillColor=#66B2FF;gradientColor=none;" vertex="1" parent="1">
                    <mxGeometry x="485" y="20" width="100" height="60" as="geometry"/>
                </mxCell>
            </root>
        </mxGraphModel>
    </diagram>
</mxfile>